<svg width="80" height="80" viewBox="0 0 80 80" fill="none" xmlns="http://www.w3.org/2000/svg">
<path d="M40 80C62.0914 80 80 62.0914 80 40C80 17.9086 62.0914 0 40 0C17.9086 0 0 17.9086 0 40C0 62.0914 17.9086 80 40 80Z" fill="#2F64ED"/>
<path d="M73.3074 29.6949C73.1102 28.9584 72.353 28.5184 71.6178 28.7198L68.4881 29.5584C67.9792 27.9474 67.3336 26.3832 66.5571 24.8784L69.3571 23.2618C70.0178 22.8811 70.2426 22.037 69.8619 21.3777C69.4812 20.717 68.6357 20.4894 67.9778 20.8729L65.1571 22.5018C64.233 21.0577 63.2178 19.7032 62.0964 18.4729L64.3819 16.1874C64.9212 15.648 64.9212 14.7763 64.3819 14.237C63.8426 13.6977 62.9709 13.6977 62.4316 14.237L60.1516 16.517C58.8923 15.3694 57.5392 14.3542 56.1226 13.4508L57.7447 10.6425C58.1254 9.98183 57.9005 9.13907 57.2399 8.75838C56.5792 8.37632 55.735 8.60252 55.3557 9.26321L53.7295 12.0798C52.2247 11.3046 50.6605 10.6687 49.0523 10.1584L49.8978 7.00252C50.095 6.26735 49.6578 5.51011 48.9226 5.31287C48.1819 5.11011 47.4302 5.55287 47.233 6.28804L46.3874 9.4439C44.7433 9.08114 43.0702 8.8508 41.3792 8.76942V5.51701C41.3792 4.75425 40.7612 4.1377 39.9999 4.1377C39.2385 4.1377 38.6205 4.75425 38.6205 5.51701V8.76114C36.9419 8.83563 35.2633 9.03838 33.5985 9.40252L32.764 6.28804C32.5668 5.55287 31.815 5.11011 31.0743 5.31287C30.3392 5.51011 29.9019 6.26597 30.0992 7.00252L30.935 10.1239C29.3474 10.6287 27.793 11.2949 26.2688 12.0825L24.6412 9.26321C24.2605 8.60114 23.4178 8.37494 22.7585 8.75838C22.0978 9.13907 21.873 9.98321 22.2537 10.6425L23.8702 13.4411C22.4357 14.3611 21.095 15.3929 19.8564 16.5267L17.5668 14.237C17.0274 13.6977 16.1557 13.6977 15.6164 14.237C15.0771 14.7763 15.0771 15.648 15.6164 16.1874L17.9116 18.4825C16.7737 19.7363 15.7461 21.0798 14.8385 22.5005L12.0205 20.8742C11.3585 20.4922 10.5171 20.7184 10.1364 21.3791C9.75572 22.0398 9.98193 22.8825 10.6412 23.2632L13.4619 24.8922C12.6895 26.3887 12.0412 27.9515 11.5268 29.5639L8.38055 28.7198C7.64813 28.5198 6.88813 28.9598 6.69089 29.6949C6.49365 30.4301 6.92951 31.1874 7.66606 31.3846L10.8123 32.2287C10.3461 34.346 10.0936 36.5253 10.1005 38.7405C10.1019 39.5018 10.7199 40.1156 11.4799 40.1156C11.4812 40.1156 11.4826 40.1156 11.484 40.1156C12.2454 40.1129 12.8619 39.4936 12.8592 38.7322C12.8385 31.8853 15.4137 25.3805 19.8605 20.4329L30.3019 30.8742C29.2468 32.1942 28.4592 33.7253 28.0081 35.408C27.1488 38.6094 27.5902 41.9556 29.2468 44.826C31.4619 48.6549 35.5833 51.0342 40.0095 51.0342C42.1764 51.0342 44.3199 50.4577 46.2054 49.3694C49.0771 47.7129 51.1295 45.0356 51.9874 41.8329C52.8468 38.6315 52.4054 35.2853 50.7488 32.4149C50.4343 31.8715 50.073 31.3653 49.6867 30.8825L60.1474 20.4218C61.4054 21.8149 62.5433 23.3529 63.5185 25.0425C65.9074 29.1805 67.1571 33.9142 67.1323 38.7308C67.1281 39.4922 67.7433 40.1129 68.5047 40.117C68.5061 40.117 68.5088 40.117 68.5116 40.117C69.2702 40.117 69.8867 39.5046 69.8909 38.7446C69.9019 36.5418 69.6578 34.3584 69.1957 32.2274L72.3309 31.386C73.0688 31.1873 73.5047 30.4315 73.3074 29.6949ZM39.9902 26.2067C37.8233 26.2067 35.6799 26.7832 33.7943 27.8715C33.2495 28.186 32.7461 28.5474 32.2619 28.9308L21.8081 18.477C23.2109 17.2053 24.7488 16.066 26.4219 15.1005C36.8674 9.06873 49.6881 10.7998 58.1971 18.4729L47.735 28.9349C45.5626 27.2067 42.844 26.2067 39.9902 26.2067ZM49.324 41.1198C48.6564 43.6108 47.0592 45.6908 44.8261 46.9805C43.3599 47.8274 41.6936 48.2756 40.0095 48.2756C36.5654 48.2756 33.3585 46.4246 31.6399 43.4467C30.3502 41.2136 30.0081 38.6122 30.6757 36.1211C31.3433 33.6301 32.9405 31.5501 35.1736 30.2605C36.6399 29.4136 38.3061 28.9653 39.9902 28.9653C43.4343 28.9653 46.6412 30.8163 48.3599 33.7942C49.6495 36.0273 49.9916 38.6287 49.324 41.1198Z" fill="white"/>
<path opacity="0.4" d="M35.8621 64.1378H32.8179C32.7959 64.1378 32.7779 64.1488 32.7572 64.1502C32.5917 61.7985 31.9903 59.4495 30.9076 57.222C30.9241 57.2123 30.9434 57.2095 30.96 57.1999L33.5959 55.6771C34.2565 55.2964 34.4814 54.4523 34.1007 53.793C33.7186 53.1323 32.8731 52.9061 32.2165 53.2882L29.5807 54.8109C29.56 54.8233 29.5476 54.844 29.5283 54.8578C28.1407 52.8054 26.4124 51.1075 24.4593 49.7861C24.4717 49.7668 24.4896 49.7516 24.5007 49.7323L26.0234 47.0964C26.4041 46.4357 26.1779 45.593 25.5186 45.2123C24.8565 44.8316 24.0152 45.0564 23.6345 45.7171L22.1117 48.353C22.1034 48.3682 22.1034 48.3861 22.0952 48.4013C19.9241 47.3502 17.5683 46.7199 15.1628 46.5433C15.1628 46.5254 15.1724 46.5116 15.1724 46.4937V43.4482C15.1724 42.6854 14.5545 42.0688 13.7931 42.0688C13.0317 42.0688 12.4138 42.6854 12.4138 43.4482V46.4923C12.4138 46.5157 12.4262 46.5351 12.4276 46.5599C9.64413 46.7585 6.86068 47.5516 4.28137 49.0413C3.29103 49.6137 2.3862 50.273 1.54068 50.9833C2.71309 55.0937 4.52965 58.9309 6.86758 62.3861C7.50068 60.9833 8.55447 59.7544 9.99034 58.9254C13.6303 56.8233 18.2841 58.0716 20.3862 61.7116C22.4883 65.3516 21.24 70.0054 17.6014 72.1075C17.32 72.2702 17.0317 72.4054 16.7393 72.5282C20.1352 74.9626 23.9228 76.8826 27.9972 78.164C30.8096 75.0054 32.4483 71.0178 32.7545 66.8826C32.7779 66.884 32.7972 66.8964 32.8207 66.8964H35.8621C36.6234 66.8964 37.2414 66.2799 37.2414 65.5171C37.2414 64.7544 36.6234 64.1378 35.8621 64.1378Z" fill="white"/>
<path opacity="0.4" d="M67.5725 45.8718C67.5738 45.8484 67.5863 45.8277 67.5863 45.8028V42.7587C67.5863 41.9959 66.9683 41.3794 66.2069 41.3794C65.4456 41.3794 64.8276 41.9959 64.8276 42.7587V45.8028C64.8276 45.8249 64.8387 45.8415 64.84 45.8635C62.4883 46.029 60.1366 46.6318 57.9076 47.7146C57.8994 47.698 57.8994 47.6787 57.8897 47.6622L56.3669 45.0263C55.9863 44.3642 55.1421 44.138 54.4828 44.5201C53.8221 44.9008 53.5973 45.7449 53.978 46.4042L55.5007 49.0401C55.5131 49.0608 55.5311 49.0759 55.5435 49.0953C53.4911 50.4842 51.7931 52.2125 50.4731 54.1656C50.4538 54.1532 50.4428 54.1325 50.4221 54.1201L47.7863 52.5973C47.1228 52.2153 46.2842 52.4415 45.9021 53.1022C45.5214 53.7628 45.7476 54.6056 46.4069 54.9863L49.0428 56.5091C49.058 56.5173 49.0745 56.5201 49.0897 56.5284C48.04 58.698 47.4097 61.0525 47.2331 63.458C47.2138 63.458 47.2 63.4484 47.1821 63.4484H44.138C43.3766 63.4484 42.7587 64.0649 42.7587 64.8277C42.7587 65.5904 43.3766 66.207 44.138 66.207H47.1821C47.2056 66.207 47.2263 66.1946 47.2497 66.1932C47.4483 68.9766 48.2414 71.7601 49.7311 74.3394C50.5173 75.7008 51.4594 76.9104 52.5021 77.9959C56.6373 76.6359 60.4676 74.6111 63.8842 72.0622C62.1476 71.5049 60.6014 70.3353 59.618 68.6318C57.5159 64.9918 58.7642 60.338 62.4028 58.2359C66.0414 56.1339 70.6966 57.3822 72.7987 61.0222C73.0042 61.378 73.1683 61.7463 73.3104 62.1187C75.6676 58.5766 77.4842 54.6442 78.6194 50.4277C75.498 47.7408 71.6056 46.1711 67.5725 45.8718Z" fill="white"/>
</svg>
